<svg width="80" height="80" viewBox="0 0 80 80" fill="none" xmlns="http://www.w3.org/2000/svg">
<circle cx="40" cy="40" r="40" fill="#FFA300" fill-opacity="0.1"/>
<path d="M27.8344 50.0247C29.9647 53.338 33.1005 55.8754 36.7781 57.2617C40.4558 58.6481 44.4802 58.8098 48.2565 57.7231C52.0328 56.6364 55.3607 54.3588 57.7481 51.2271C60.1355 48.0953 61.4558 44.2756 61.5138 40.3325C61.5718 36.3895 60.3645 32.5322 58.0704 29.3311C55.7762 26.1299 52.5169 23.7546 48.7742 22.5564C45.0315 21.3581 41.0041 21.4004 37.2872 22.6771C33.5704 23.9538 30.3613 26.397 28.1344 29.6457" stroke="#FFA300" stroke-width="2.88" stroke-linecap="round"/>
<path d="M21.7625 34.4844H34.9407" stroke="#FFA300" stroke-width="2.88" stroke-linecap="round"/>
<path d="M19.2 39.9941H32.3782" stroke="#FFA300" stroke-width="2.88" stroke-linecap="round"/>
<path d="M21.7625 45.5098H34.9407" stroke="#FFA300" stroke-width="2.88" stroke-linecap="round"/>
<ellipse cx="42.9179" cy="40.1787" rx="1.28122" ry="1.28614" fill="#FFA300"/>
<path d="M53.5335 28.2402L42.1855 39.2643L43.8328 40.9179L53.5335 28.2402Z" fill="#FFA300"/>
</svg>