<svg width="30" height="30" viewBox="0 0 30 30" fill="none" xmlns="http://www.w3.org/2000/svg">
<path fill-rule="evenodd" clip-rule="evenodd" d="M30 15C30 6.71573 23.2843 0 15 0C6.71573 0 0 6.71573 0 15C0 23.2843 6.71573 30 15 30C23.2843 30 30 23.2843 30 15ZM17.3741 10.7071C17.7646 10.3166 17.7646 9.68342 17.3741 9.29289C16.9836 8.90237 16.3504 8.90237 15.9599 9.29289L10.9599 14.2929C10.5694 14.6834 10.5694 15.3166 10.9599 15.7071L15.9599 20.7071C16.3504 21.0976 16.9836 21.0976 17.3741 20.7071C17.7646 20.3166 17.7646 19.6834 17.3741 19.2929L13.0812 15L17.3741 10.7071Z" fill="#DCE3E7"/>
</svg>