<svg width="30" height="30" viewBox="0 0 30 30" fill="none" xmlns="http://www.w3.org/2000/svg">
<path fill-rule="evenodd" clip-rule="evenodd" d="M0 15C0 6.71573 6.71573 0 15 0C23.2843 0 30 6.71573 30 15C30 23.2843 23.2843 30 15 30C6.71573 30 0 23.2843 0 15ZM12.6259 10.7071C12.2354 10.3166 12.2354 9.68342 12.6259 9.29289C13.0164 8.90237 13.6496 8.90237 14.0401 9.29289L19.0401 14.2929C19.4306 14.6834 19.4306 15.3166 19.0401 15.7071L14.0401 20.7071C13.6496 21.0976 13.0164 21.0976 12.6259 20.7071C12.2354 20.3166 12.2354 19.6834 12.6259 19.2929L16.9188 15L12.6259 10.7071Z" fill="#DCE3E7"/>
</svg>